# xmcd
#
# Track frame offsets:
# 150
# 29097
# 48312
# 68266
# 89258
# 114555
# 135853
# 147712
#
# Disc length: 2221 seconds
#
#
# Revision: 0
# Processed by: cddbd v1.5.2PL0 Copyright (c) Steve Scherf et al.
# Submitted via: FreeRIP 2.945 
#
DISCID=6a08ab08
DTITLE=Teddy Pendergrass - Workin' It Back
DYEAR=1900
DGENRE=Soul
TTITLE0=Love 4-2
TTITLE1=One Of Us Fell In Love
TTITLE2=Never Felt Like Dancin'
TTITLE3=Let Me Be Closer
TTITLE4=Lonely Color Blue
TTITLE5=Want You Back In My Life
TTITLE6=Workin' It Back
TTITLE7=Love Emergency
EXTD=
EXTT0=
EXTT1=
EXTT2=
EXTT3=
EXTT4=
EXTT5=
EXTT6=
EXTT7=
PLAYORDER=
